<svg width="225" height="36" viewBox="0 0 225 36" fill="none" xmlns="http://www.w3.org/2000/svg">
<path d="M17.7969 24.7109L0.921875 17.8438V14.5156L17.7969 7.64844V11.7031L5.84375 16.1797L17.7969 20.6562V24.7109ZM20.2578 33.2891L34.8594 0.875H38.8906L24.3125 33.2891H20.2578ZM41.3516 24.7109V20.6562L53.3047 16.1797L41.3516 11.7031V7.64844L58.2266 14.5156V17.8438L41.3516 24.7109ZM75.0312 35.8438V0.875H78.7109V35.8438H75.0312ZM94.5078 29C94.8203 28.2969 95.1406 27.5 95.4688 26.6094C95.7969 25.7031 96.2344 24.4219 96.7812 22.7656L103.297 3.33594H109.555L116.047 22.7656C116.594 24.4062 117.031 25.6797 117.359 26.5859C117.703 27.4922 118.031 28.2969 118.344 29H113.188L111.242 22.7656H101.68L99.7344 29H94.5078ZM102.828 18.9922H110.047L106.414 7.41406L102.828 18.9922ZM122.328 29C122.453 28.2969 122.523 27.2969 122.539 26C122.57 24.7031 122.586 23.1875 122.586 21.4531V10.9062C122.586 9.17188 122.57 7.65625 122.539 6.35938C122.523 5.04688 122.453 4.03906 122.328 3.33594H127.602V13.8828H137.984V3.33594H143.258C143.117 4.03906 143.031 5.04688 143 6.35938C142.984 7.65625 142.977 9.17188 142.977 10.9062V21.4531C142.977 23.1875 142.984 24.7031 143 26C143.031 27.2969 143.117 28.2969 143.258 29C143.258 29 142.992 29 142.461 29C141.93 29 141.312 29 140.609 29C139.922 29 139.312 29 138.781 29C138.25 29 137.984 29 137.984 29V17.8438H127.602V29C127.602 29 127.336 29 126.805 29C126.273 29 125.656 29 124.953 29C124.266 29 123.656 29 123.125 29C122.594 29 122.328 29 122.328 29ZM159.852 29L153.992 8.44531L151.859 3.33594H156.43L162.43 24.1719L168.477 3.33594H172.977L170.867 8.44531L165.031 29H159.852ZM148.953 29C149.016 28.5 149.086 27.6719 149.164 26.5156C149.242 25.3438 149.32 23.9766 149.398 22.4141C149.477 20.8359 149.555 19.1797 149.633 17.4453C149.711 15.7109 149.781 14.0078 149.844 12.3359C149.922 10.6641 149.984 9.15625 150.031 7.8125C150.078 6.45312 150.117 5.36719 150.148 4.55469C150.18 3.74219 150.195 3.33594 150.195 3.33594H154.836L154.203 7.83594L153.711 29H148.953ZM171.102 29L170.656 7.83594L169.883 3.33594H174.617C174.617 3.33594 174.633 3.74219 174.664 4.55469C174.695 5.36719 174.734 6.45312 174.781 7.8125C174.828 9.15625 174.883 10.6641 174.945 12.3359C175.008 14.0078 175.078 15.7109 175.156 17.4453C175.234 19.1797 175.312 20.8359 175.391 22.4141C175.469 23.9766 175.547 25.3438 175.625 26.5156C175.703 27.6719 175.781 28.5 175.859 29H171.102ZM181.578 29C181.703 28.2969 181.773 27.2812 181.789 25.9531C181.82 24.625 181.836 23.0938 181.836 21.3594V11C181.836 9.26562 181.82 7.73438 181.789 6.40625C181.773 5.0625 181.703 4.03906 181.578 3.33594H197.797V7.39062H186.852V13.625H196.461V17.5859H186.852V24.9688H191.398C193.07 24.9688 194.469 24.9531 195.594 24.9219C196.734 24.8906 197.641 24.8203 198.312 24.7109V29H181.578ZM210.969 29.1641C210.375 29.1641 209.625 29.1562 208.719 29.1406C207.828 29.125 206.938 29.1016 206.047 29.0703C205.156 29.0547 204.406 29.0391 203.797 29.0234C203.203 29.0078 202.906 29 202.906 29C203.031 28.2969 203.102 27.2266 203.117 25.7891C203.148 24.3516 203.164 22.7578 203.164 21.0078V11.4219C203.164 9.70312 203.148 8.10156 203.117 6.61719C203.102 5.13281 203.031 4.03906 202.906 3.33594C203.438 3.30469 204.203 3.28125 205.203 3.26562C206.219 3.23438 207.289 3.21094 208.414 3.19531C209.539 3.17969 210.516 3.17188 211.344 3.17188C212.312 3.17188 213.375 3.26562 214.531 3.45312C215.703 3.64062 216.859 3.98438 218 4.48438C219.156 4.98438 220.211 5.71094 221.164 6.66406C222.133 7.61719 222.906 8.85156 223.484 10.3672C224.062 11.8828 224.352 13.7578 224.352 15.9922C224.352 18.6172 223.914 20.7812 223.039 22.4844C222.18 24.1875 221.062 25.5312 219.688 26.5156C218.328 27.4844 216.875 28.1719 215.328 28.5781C213.781 28.9688 212.328 29.1641 210.969 29.1641ZM211.391 25.1328C212.703 25.1328 213.969 24.8438 215.188 24.2656C216.422 23.6875 217.43 22.7578 218.211 21.4766C219.008 20.1797 219.406 18.4688 219.406 16.3438C219.406 14.0156 219.062 12.1797 218.375 10.8359C217.688 9.49219 216.742 8.53906 215.539 7.97656C214.352 7.39844 212.992 7.10938 211.461 7.10938C210.977 7.10938 210.398 7.11719 209.727 7.13281C209.07 7.14844 208.555 7.17188 208.18 7.20312V24.9453C208.523 24.9766 208.969 25.0156 209.516 25.0625C210.078 25.1094 210.703 25.1328 211.391 25.1328Z" fill="black"/>
</svg>
